<svg width="800" height="500" viewBox="0 0 800 500" fill="none" xmlns="http://www.w3.org/2000/svg">
  <rect width="800" height="500" fill="#f5f5f3"/>
  
  <!-- Subtle grid pattern -->
  <defs>
    <pattern id="grid" width="24" height="24" patternUnits="userSpaceOnUse">
      <circle cx="12" cy="12" r="1" fill="#e0e0de"/>
    </pattern>
  </defs>
  <rect width="800" height="500" fill="url(#grid)"/>
  
  <!-- Tools icon - wrench/settings -->
  <g transform="translate(330, 170)">
    <path d="M28.5 12C28.5 16.5 25.5 20.5 21.5 22L24 32C24.5 34 23 36 21 36H19C17 36 15.5 34 16 32L18.5 22C14.5 20.5 11.5 16.5 11.5 12C11.5 6 16.5 1 22.5 1C28.5 1 28.5 6 28.5 12Z" stroke="#c0c0bc" stroke-width="6" fill="none" stroke-linecap="round" stroke-linejoin="round" transform="translate(50, 20)"/>
    <circle cx="72" cy="32" r="8" stroke="#c0c0bc" stroke-width="6" fill="none"/>
    <path d="M100 60L120 80M120 60L100 80" stroke="#c0c0bc" stroke-width="6" stroke-linecap="round"/>
    <rect x="20" y="80" width="100" height="40" rx="8" stroke="#c0c0bc" stroke-width="6" fill="none"/>
  </g>
  
  <!-- Label -->
  <text x="400" y="360" font-family="Georgia, serif" font-size="18" fill="#a0a0a0" text-anchor="middle" font-style="italic">Tools</text>
</svg>
